<svg xmlns="http://www.w3.org/2000/svg" id="Layer_1" viewBox="0 0 9.6 10">
  <style>
    .st0,.st1{fill:none;stroke:#000;stroke-width:.2608;stroke-linejoin:round}.st1{stroke-linecap:round;stroke-miterlimit:10}
  </style>
  <circle cx="4" cy="8.6" r=".4" class="st0"/>
  <path d="M6.9 8.6c0-.2.2-.4.4-.4s.4.2.4.4-.1.4-.4.4c-.2 0-.4-.2-.4-.4z" class="st0"/>
  <path d="M.4 1c.9 0 1.3-.2 1.6.9.3 1.1.7 4.1.8 4.6.1.5.4.8.9.8h4.8" class="st1"/>
  <path d="M2.8 5.9h4.4c.7 0 1-.1 1.2-.6s.7-1.8.8-2.1.1-.3-.5-.3H2.3" class="st1"/>
</svg>
