<?xml version="1.0" encoding="utf-8"?>
<!-- Generator: Adobe Illustrator 23.0.0, SVG Export Plug-In . SVG Version: 6.00 Build 0)  -->
<svg version="1.1" id="Layer_1" xmlns="http://www.w3.org/2000/svg" xmlns:xlink="http://www.w3.org/1999/xlink" x="0px" y="0px"
	 viewBox="0 0 20.4 20.4" style="enable-background:new 0 0 20.4 20.4;" xml:space="preserve">
<g>
	<path d="M10.2,2c2.7,0,3,0,4,0.1c1,0,1.5,0.2,1.9,0.3c0.5,0.2,0.8,0.4,1.1,0.7c0.3,0.3,0.6,0.7,0.7,1.1c0.1,0.4,0.3,0.9,0.3,1.9
		c0,1.1,0.1,1.4,0.1,4s0,3-0.1,4c0,1-0.2,1.5-0.3,1.9c-0.2,0.5-0.4,0.8-0.7,1.1c-0.3,0.3-0.7,0.6-1.1,0.7c-0.4,0.1-0.9,0.3-1.9,0.3
		c-1.1,0-1.4,0.1-4,0.1s-3,0-4-0.1c-1,0-1.5-0.2-1.9-0.3c-0.5-0.2-0.8-0.4-1.1-0.7c-0.3-0.3-0.6-0.7-0.7-1.1
		c-0.1-0.4-0.3-0.9-0.3-1.9c0-1.1-0.1-1.4-0.1-4s0-3,0.1-4c0-1,0.2-1.5,0.3-1.9c0.2-0.5,0.4-0.8,0.7-1.1c0.3-0.3,0.7-0.6,1.1-0.7
		c0.4-0.1,0.9-0.3,1.9-0.3C7.2,2,7.5,2,10.2,2 M10.2,0.2c-2.7,0-3.1,0-4.1,0.1C5,0.3,4.3,0.5,3.6,0.7C3,1,2.4,1.3,1.9,1.9
		C1.3,2.4,1,3,0.7,3.7C0.5,4.3,0.3,5,0.3,6.1c0,1.1-0.1,1.4-0.1,4.1c0,2.7,0,3.1,0.1,4.1c0,1.1,0.2,1.8,0.5,2.4
		C1,17.4,1.3,18,1.9,18.5c0.6,0.6,1.1,0.9,1.8,1.2c0.6,0.2,1.4,0.4,2.4,0.5c1.1,0,1.4,0.1,4.1,0.1s3.1,0,4.1-0.1
		c1.1,0,1.8-0.2,2.4-0.5c0.7-0.3,1.2-0.6,1.8-1.2c0.6-0.6,0.9-1.1,1.2-1.8c0.2-0.6,0.4-1.4,0.5-2.4c0-1.1,0.1-1.4,0.1-4.1
		s0-3.1-0.1-4.1c0-1.1-0.2-1.8-0.5-2.4c-0.3-0.7-0.6-1.2-1.2-1.8C18,1.3,17.4,1,16.8,0.7c-0.6-0.2-1.4-0.4-2.4-0.5
		C13.3,0.2,12.9,0.2,10.2,0.2L10.2,0.2z"/>
	<path d="M10.2,5.1c-2.8,0-5.1,2.3-5.1,5.1s2.3,5.1,5.1,5.1s5.1-2.3,5.1-5.1S13,5.1,10.2,5.1z M10.2,13.5c-1.8,0-3.3-1.5-3.3-3.3
		c0-1.8,1.5-3.3,3.3-3.3c1.8,0,3.3,1.5,3.3,3.3C13.5,12,12,13.5,10.2,13.5z"/>
	<circle cx="15.5" cy="4.9" r="1.2"/>
</g>
</svg>
