<?xml version="1.0" encoding="UTF-8"?>
<svg enable-background="new 0 0 72 72" version="1.1" viewBox="0 0 72 72" xml:space="preserve" xmlns="http://www.w3.org/2000/svg">
<style type="text/css">
	.st0{fill:#FFFFFF;}
</style>
<path class="st0" d="m71.5 39.1c-2 0.2-4 0.5-6 0.8l-3 0.5c-1 0.1-2 0.2-3 0.4-2 0.3-3.9 0.6-5.8 1.2-0.5 0.2-0.9 0.3-1.3 0.5-0.3 0.2-0.6 0.4-0.7 0.6-0.1 0.1-0.1 0.4 0 0.4h0.2c0.1 0 0.3 0 0.6-0.1 0.2 0 0.4-0.1 0.7-0.1 0.4-0.1 0.9-0.2 1.3-0.4 0.9-0.3 1.7-0.8 2.4-1.3 0.4-0.3 0.7-0.5 1-0.8 0.2-0.3 0.4-0.5 0.4-0.7s0-0.5-0.1-1l-0.3-1.5-2.5-11.9 2.9 0.5c-1.2 2-2.3 4-3.4 6s-2.1 4.1-3 6.2c-0.4 0.9-1.4 1.3-2.3 0.9-0.7-0.3-1.1-1-1.1-1.7l0.2-9.1 3.6 0.9c-1.7 3.5-3.8 6.9-6.2 10-0.7 0.9-1.9 1.1-2.8 0.4-0.2-0.2-0.4-0.4-0.6-0.7v-0.1c-2.3-4.4-3.2-9.5-2.7-14.4l4.2 1c-0.4 1.3-0.8 2.8-1.1 4.3s-0.6 3-0.8 4.6c-0.2 1.5-0.5 3.1-0.6 4.7l-0.3 2.3c0 0.2-0.1 0.5-0.1 0.7 0 0.3-0.1 0.5-0.2 0.7-0.1 0.5-0.2 0.9-0.4 1.3-0.6 1.7-1.2 3.2-1.9 4.6-0.7 1.5-1.4 2.9-2.2 4.3-1.5 2.8-3.1 5.6-4.5 8.4 0 0.1-0.1 0.1-0.1 0.2-0.3 0.4-0.5 0.6-0.7 0.9l-0.7 0.7c-0.5 0.4-1 0.8-1.6 1.1-1.1 0.6-2.4 1-3.7 1.1s-2.5 0-3.7-0.2c-0.6-0.1-1.1-0.3-1.7-0.5-0.3-0.1-0.5-0.2-0.8-0.3l-0.7-0.3c-1.9-0.8-3.8-1.8-5.5-2.9-0.9-0.6-1.8-1.3-2.6-2.1-0.4-0.2-0.9-0.6-1.3-1.3-0.1-0.2-0.2-0.3-0.3-0.6-0.1-0.1-0.1-0.2-0.2-0.4l-0.1-0.2v-0.1l-0.2-0.6c-0.2-0.5-0.3-0.9-0.4-1.2s-0.3-0.6-0.3-0.7l-0.2-0.1c-0.1-0.1-0.1-0.2-0.2-0.3-0.1-0.2-0.3-0.4-0.4-0.7-0.2-0.5-0.4-1.1-0.4-1.5-0.1-0.8 0-1.2-0.1-1.6 0-0.4-0.1-0.8-0.1-1.1 0-0.2-0.1-0.3-0.1-0.4v0l0.1 0.1v0.1-0.1h-0.1c-0.3-0.5-0.3-0.6-0.4-0.9 0-0.2-0.1-0.3-0.1-0.5v-0.4-0.6c0-0.4 0.1-0.7 0.2-1.1 0.2-0.7 0.4-1.3 0.7-1.9s0.6-1.1 1-1.6 0.7-0.8 1.1-1.2c0.7-0.8 1.5-1.6 2.5-2.3 1.8-1.4 4.1-2.3 6.4-2.6l0.4-0.1h0.3-0.3c0.1 0-0.2 0-0.6 0.3 0-1.3-1.6 3-0.4 3.4 0.3 0.4 1 0.6 0.9 0.6 0.1 0 0.1 0 0.2 0.1h0.1s-0.1 0-0.2 0l-1.4-0.2c-1-0.1-2-0.2-3-0.4s-2.1-0.4-3.2-0.8c-0.6-0.2-1.1-0.5-1.8-0.9-0.3-0.2-0.6-0.5-1-0.9-0.3-0.4-0.6-0.9-0.8-1.5 0-0.1-0.1-0.3-0.1-0.5v-0.5l-0.1-0.7c-0.1-0.4-0.1-0.9-0.2-1.3s-0.2-0.8-0.3-1.3l-0.1-0.4-0.1-0.3v-0.2l-0.1-0.7-0.6-2.7-0.5-2.8s0-0.1-0.1-0.3-0.2-0.3-0.3-0.6c-0.2-0.4-0.5-0.9-0.7-1.6-0.2-0.6-0.7-1.4-1.2-2.3-0.1-0.2-0.3-0.4-0.4-0.8l-0.1-0.3-0.1-0.2-0.1-0.4-0.6-1.5s-0.3-1.1-0.4-1.8c0-0.3-0.1-0.7 0-1.1v-0.6c0-0.9-0.1-2.1 0.5-3.5 0.2-0.4 0.4-0.7 0.6-1 0.4-0.1 0.7-0.4 1-0.6 0.4-0.3 0.8-0.4 1.1-0.5s0.6-0.2 0.9-0.2c1.2-0.2 2.4-0.1 3.5 0.2s2.2 0.7 3.1 1.2l-0.1-0.1c1.8 0.8 3.5 1.8 5.1 2.9s3.1 2.3 4.5 3.5c2.9 2.5 5.5 5.2 7.8 8.2l1.7 2.2 1.7 2.3c0.5 0.8 1 1.5 1.6 2.3 0.3 0.4 0.5 0.8 0.8 1.2s0.5 0.8 0.7 1.2c0.9 1.6 1.9 3.2 2.6 5 0.4 0.9 0.7 1.7 1 2.6 0.2 0.9 0.4 1.9 0.3 2.8 0.1-0.9-0.2-1.8-0.5-2.7s-0.7-1.7-1.2-2.5c-0.9-1.6-2-3.1-3-4.6-0.3-0.4-0.5-0.8-0.8-1.1-0.3-0.4-0.6-0.7-0.8-1.1-0.6-0.7-1.1-1.5-1.7-2.2l-1.8-2.1-1.8-2c-2.5-2.7-5.2-5.2-8.1-7.4-1.4-1.1-2.9-2.2-4.4-3.1s-3.1-1.8-4.7-2.4h-0.1c-1.5-0.7-3.2-1-4.6-0.8-0.2 0-0.3 0.1-0.5 0.1-0.1 0-0.2 0.1-0.2 0.1h-0.3c0 0.1-0.1 0.1-0.1 0.2-0.1 0.2-0.1 0.5-0.1 0.8v1.3 0.8 0.3c0 0.3 0.2 0.7 0.3 1.1s0.3 0.8 0.5 1.2l0.1 0.3 0.1 0.2v0.1c0.1 0.1 0.2 0.3 0.3 0.5 0.2 0.4 0.5 0.8 0.8 1.3 0.1 0.2 0.3 0.5 0.4 0.7 0.1 0.1 0.1 0.3 0.2 0.4 0 0.1 0.1 0.2 0.1 0.3v0.1l0.5 1c0.1 0.2 0.3 0.5 0.4 0.7 0.1 0.3 0.3 0.6 0.4 1.1l0.6 2.9 0.6 2.9 0.1 0.7v0.2l0.1 0.3c0.1 0.4 0.3 1 0.4 1.5s0.2 1 0.3 1.6l0.1 0.8 0.1 0.4v0.2-0.1c0-0.1-0.1-0.2-0.1-0.2s0 0 0.1 0.1c0.2 0.1 0.5 0.3 0.8 0.4 0.7 0.2 1.6 0.4 2.4 0.6 0.9 0.1 1.8 0.2 2.7 0.3l1.5 0.1c0.1 0 0.3 0 0.5 0.1 0.1 0 0.1 0 0.3 0.1 0.1 0 0.2 0 0.2 0.1-0.1-0.1 0.6 0.2 0.9 0.6 1.2 0.4-0.4 4.8-0.4 3.5l-0.6 0.3c-0.1 0-0.1 0-0.2 0.1h-0.7v0.1c-1.5 0.2-2.9 0.9-4.2 1.8-0.6 0.5-1.2 1-1.8 1.7-0.3 0.3-0.6 0.7-0.8 1s-0.4 0.6-0.5 0.8c-0.1 0.3-0.2 0.6-0.3 0.8 0 0.1-0.1 0.3-0.1 0.4v0.1-0.1c0-0.1 0-0.2-0.2-0.5l-0.1-0.1s-0.1-0.1 0 0l0.1 0.1c0.1 0.1 0.1 0.2 0.2 0.2 0.2 0.3 0.2 0.5 0.3 0.7 0.1 0.4 0.2 0.7 0.3 1 0.1 0.6 0.2 1.2 0.2 1.8s0 1.2 0 1.3 0 0 0-0.1l0.1 0.1c0.5 0.7 0.8 1.3 1.1 1.9 0.2 0.6 0.4 1.1 0.6 1.5l0.2 0.7v0.1 0.1c0.1 0.2 0.3 0.4 0.6 0.7 0.5 0.5 1.2 1 2 1.5 1.4 1 3.1 1.8 4.7 2.5l0.6 0.3c0.2 0.1 0.4 0.2 0.6 0.2 0.4 0.1 0.7 0.2 1.1 0.3 0.7 0.2 1.4 0.2 2.1 0.2 0.7-0.1 1.3-0.2 1.9-0.5 0.3-0.1 0.5-0.3 0.8-0.5l0.3-0.3 0.2-0.2-0.1 0.2c1.6-2.9 3.1-5.6 4.6-8.3 0.7-1.4 1.4-2.8 2.1-4.1 0.7-1.4 1.3-2.8 1.8-4.1 0.1-0.3 0.2-0.7 0.3-1 0-0.1 0.1-0.3 0.1-0.4s0-0.2 0.1-0.4l0.3-2.4c0.2-1.6 0.5-3.2 0.7-4.8l0.9-4.8c0.4-1.6 0.7-3.2 1.3-4.9 0.4-1.1 1.6-1.7 2.7-1.3 1 0.3 1.5 1.3 1.4 2.3-0.5 4.1 0.3 8.4 2.1 12.1l-3.4-0.6c2.3-2.9 4.3-5.9 6-9.2 0.5-0.9 1.6-1.3 2.5-0.8 0.7 0.4 1 1.1 1 1.8l-0.4 9.1-3.4-0.9c1-2.2 2.1-4.3 3.2-6.4s2.4-4.1 3.7-6.1c0.5-0.7 1.5-0.9 2.2-0.5 0.4 0.2 0.6 0.6 0.7 1.1l2.1 12 0.3 1.5c0.1 0.6 0.2 1.2 0 2s-0.7 1.5-1.1 1.9c-0.5 0.5-0.9 0.8-1.4 1.1-0.9 0.6-2 1.1-3 1.5-0.5 0.2-1.1 0.3-1.6 0.4-0.3 0.1-0.5 0.1-0.8 0.1s-0.6 0.1-0.9 0.1c-0.4 0-0.9-0.1-1.3-0.3-0.5-0.3-0.8-0.7-1-1.2-0.2-0.4-0.2-0.9-0.1-1.3s0.2-0.8 0.4-1.2c0.5-0.7 1.1-1.1 1.6-1.3 0.6-0.3 1.1-0.4 1.6-0.6 2.1-0.6 4.1-0.9 6.2-1.1 1-0.1 2-0.2 3.1-0.2h3.1c1.8 0.2 3.9 0.3 5.9 0.6z"/>
</svg>
